<?xml version="1.0" standalone="no"?>
<!DOCTYPE svg PUBLIC "-//W3C//DTD SVG 20010904//EN"
 "http://www.w3.org/TR/2001/REC-SVG-20010904/DTD/svg10.dtd">
<svg version="1.0" xmlns="http://www.w3.org/2000/svg"
 width="2048.000000pt" height="2048.000000pt" viewBox="0 0 2048.000000 2048.000000"
 preserveAspectRatio="xMidYMid meet">
<metadata>
Created by potrace 1.11, written by Peter Selinger 2001-2013
</metadata>
<g transform="translate(0.000000,2048.000000) scale(0.100000,-0.100000)"
fill="#000000" stroke="none">
<path d="M0 10240 l0 -10240 10240 0 10240 0 0 10240 0 10240 -10240 0 -10240
0 0 -10240z m5413 5885 c-3 -9 -8 -14 -10 -11 -3 3 -2 9 2 15 9 16 15 13 8 -4z
m-176 -477 c-3 -7 -5 -2 -5 12 0 14 2 19 5 13 2 -7 2 -19 0 -25z m1045 -305
c-3 -16 -7 -22 -10 -15 -4 13 4 42 11 42 2 0 2 -12 -1 -27z m1970 -833 l1438
0 0 -2466 0 -2466 -52 55 c-413 432 -1070 602 -1677 432 -30 -8 -57 -18 -60
-21 -3 -4 5 -3 19 0 19 6 21 5 10 -3 -8 -6 -25 -8 -38 -4 -12 3 -30 -1 -39 -8
-9 -8 -18 -13 -20 -11 -7 7 -63 -10 -63 -19 0 -6 -4 -7 -10 -4 -5 3 -10 1 -10
-4 0 -6 -8 -11 -17 -11 -31 0 -273 -134 -273 -150 0 -6 -6 -10 -12 -10 -25 -1
-93 -61 -93 -82 0 -12 -6 -22 -13 -24 -7 -1 -8 0 -2 3 12 5 14 23 3 23 -13 0
-107 -89 -101 -95 3 -3 13 1 22 10 9 9 16 12 16 7 0 -5 -9 -17 -19 -26 -15
-13 -20 -14 -24 -4 -4 13 -25 -6 -87 -78 -59 -67 -74 -93 -62 -106 7 -9 7 -19
2 -28 -8 -12 -10 -9 -10 9 0 24 0 24 -18 5 -15 -16 -40 -52 -90 -129 -30 -48
-82 -168 -76 -177 4 -6 2 -8 -4 -4 -6 3 -15 -9 -22 -31 -7 -21 -16 -42 -20
-48 -19 -24 -70 -260 -64 -294 4 -27 3 -32 -5 -21 -9 12 -11 10 -12 -10 0 -14
-4 -54 -8 -90 -3 -36 -6 -957 -6 -2048 l0 -1983 -1560 4 c-1697 3 -1579 0
-1755 57 -422 140 -747 516 -814 944 -13 77 -16 549 -20 3162 l-5 3072 31 6
c17 3 1609 6 3539 6 2333 0 3509 3 3509 10 0 6 -8 11 -17 11 -16 1 -16 2 -1 6
15 4 17 46 17 509 l1 504 -3489 -2 c-1919 -2 -3484 0 -3478 4 7 4 -2 8 -18 8
-17 0 -36 -5 -43 -12 -14 -14 -16 -5 -3 20 4 9 23 78 41 152 85 349 256 651
498 882 298 284 681 458 1192 539 183 30 613 38 1639 33 437 -2 1442 -4 2233
-4z m-5645 -1616 c-3 -3 -12 -4 -19 -1 -8 3 -5 6 6 6 11 1 17 -2 13 -5z m-52
-14 c-3 -5 -11 -10 -16 -10 -6 0 -7 5 -4 10 3 6 11 10 16 10 6 0 7 -4 4 -10z
m-38 -26 c-3 -3 -12 -4 -19 -1 -8 3 -5 6 6 6 11 1 17 -2 13 -5z m-44 -21 c-5
-12 -3 -14 7 -8 9 5 11 4 6 -4 -4 -6 -12 -9 -17 -5 -5 3 -18 0 -27 -7 -9 -8
-6 -1 7 14 28 31 33 33 24 10z m-21 -60 c-3 -16 -7 -22 -10 -15 -4 13 4 42 11
42 2 0 2 -12 -1 -27z m-85 -315 c-2 -35 -3 -7 -3 62 0 69 1 97 3 63 2 -35 2
-91 0 -125z m5 -241 c2 -59 0 -107 -4 -107 -5 0 -7 62 -6 138 1 150 6 137 10
-31z m12751 103 c283 -33 509 -154 660 -355 160 -213 237 -470 238 -785 0
-158 -3 -182 -61 -535 -21 -132 -44 -316 -50 -410 -18 -260 -43 -385 -147
-720 -257 -833 -551 -1403 -908 -1761 -199 -199 -331 -280 -580 -354 -77 -22
-180 -55 -230 -71 -188 -63 -197 -64 -275 -51 -148 25 -292 104 -416 227 -82
82 -136 166 -181 285 -22 59 -37 86 -50 89 -73 14 -115 170 -133 496 -20 346
6 763 61 1002 13 55 23 151 29 253 9 188 35 320 106 542 52 161 240 638 319
808 30 65 72 172 95 239 58 175 131 314 247 468 165 219 396 419 598 519 202
99 448 140 678 114z m4020 -175 c170 -44 390 -208 477 -355 22 -36 51 -101 66
-145 24 -68 28 -96 28 -190 0 -125 -15 -189 -71 -300 -51 -102 -110 -180 -242
-323 -87 -94 -130 -150 -167 -217 -38 -70 -72 -113 -154 -196 -94 -94 -489
-418 -730 -599 -127 -94 -160 -128 -160 -165 0 -18 22 -69 56 -130 208 -371
297 -560 342 -724 24 -88 26 -112 26 -291 0 -180 -2 -203 -27 -293 -105 -390
-419 -679 -892 -822 -196 -59 -281 -70 -550 -69 -221 0 -250 2 -366 27 -283
60 -467 151 -604 299 -243 262 -271 659 -75 1051 96 191 232 369 445 582 165
166 242 234 430 382 132 104 173 134 334 244 l66 45 -1 50 c-2 69 -49 202
-137 385 -41 86 -91 196 -110 245 -148 372 -48 647 313 859 254 149 691 264
1015 267 124 2 166 -8 188 -43 17 -27 -3 -72 -52 -120 -64 -62 -112 -93 -287
-190 -312 -172 -455 -295 -537 -458 -28 -57 -32 -76 -35 -166 -5 -116 12 -198
74 -366 33 -87 39 -97 53 -87 145 113 393 336 519 467 199 207 414 490 499
660 49 96 53 110 53 173 0 42 -10 110 -26 171 -30 118 -29 199 4 262 44 88
114 112 235 80z m-6338 -154 c274 -7 305 -10 356 -30 109 -42 178 -128 209
-260 24 -103 -10 -235 -122 -471 -75 -157 -99 -197 -260 -422 -143 -201 -202
-294 -351 -554 -62 -109 -153 -257 -201 -329 -59 -88 -129 -215 -216 -393
-193 -393 -317 -613 -630 -1122 -86 -140 -210 -343 -276 -450 -187 -309 -275
-413 -399 -474 -51 -26 -72 -30 -141 -30 -75 -1 -87 2 -158 38 -129 66 -235
196 -271 331 -22 86 -19 115 18 186 359 684 428 808 629 1134 138 225 190 317
342 604 187 353 342 591 806 1241 274 383 392 552 388 555 -2 2 -91 -1 -198
-5 -534 -24 -1411 -1 -1559 40 -129 36 -165 73 -142 143 29 86 164 159 366
198 128 25 432 42 605 34 119 -6 152 -3 275 19 213 39 121 37 930 17z m-10365
-16 c-17 -20 -5 -32 15 -15 8 7 15 10 15 7 0 -3 3 -14 6 -24 5 -15 4 -16 -5
-3 -9 12 -13 12 -19 2 -7 -10 -11 -10 -21 1 -12 16 -5 47 11 47 6 0 5 -7 -2
-15z m92 -95 c6 0 8 -3 5 -6 -10 -11 -38 17 -30 30 5 7 9 5 11 -6 2 -10 8 -18
14 -18z m165 -6 c-3 -3 -12 -4 -19 -1 -8 3 -5 6 6 6 11 1 17 -2 13 -5z m6926
-1 c-7 -2 -19 -2 -25 0 -7 3 -2 5 12 5 14 0 19 -2 13 -5z m-7030 -10 c-7 -2
-19 -2 -25 0 -7 3 -2 5 12 5 14 0 19 -2 13 -5z m4837 -2097 c-7 -7 -13 -7 -20
0 -6 6 -3 10 10 10 13 0 16 -4 10 -10z m-250 -220 c0 -3 -4 -8 -10 -11 -5 -3
-10 -1 -10 4 0 6 5 11 10 11 6 0 10 -2 10 -4z m-250 -421 c0 -5 -5 -3 -10 5
-5 8 -10 20 -10 25 0 6 5 3 10 -5 5 -8 10 -19 10 -25z m1594 -249 c90 -40 130
-116 129 -246 0 -45 -30 -104 -70 -139 -46 -40 -73 -52 -133 -58 -25 -3 -48
-10 -52 -17 -5 -7 -8 -5 -8 7 0 10 -8 17 -20 17 -50 0 -127 63 -155 125 -18
40 -22 162 -7 177 7 7 12 17 12 24 0 18 104 122 117 117 7 -2 20 0 30 6 31 18
100 12 157 -13z m173 -178 c-3 -8 -6 -5 -6 6 -1 11 2 17 5 13 3 -3 4 -12 1
-19z m0 -50 c-3 -7 -5 -2 -5 12 0 14 2 19 5 13 2 -7 2 -19 0 -25z m-143 -853
c51 -30 101 -102 112 -164 9 -45 -11 -129 -41 -173 -14 -20 -46 -51 -72 -69
-70 -46 -144 -49 -231 -6 -40 19 -68 40 -77 58 -8 15 -19 29 -25 31 -17 5 -23
119 -10 181 14 69 72 137 135 162 60 23 151 14 209 -20z m-792 -1275 c2 -6
251 -11 690 -12 l686 -3 26 -28 26 -28 0 -344 c0 -204 4 -346 9 -350 6 -3 -2
-28 -17 -57 -37 -72 -52 -76 -262 -76 -97 0 -187 -3 -201 -6 -13 -4 -19 -4
-12 1 6 4 -207 8 -474 8 -444 0 -488 2 -514 17 -16 10 -29 23 -29 28 0 6 -4 9
-8 6 -11 -7 -11 -21 -12 391 -1 382 1 400 46 424 18 9 21 15 13 26 -9 10 -7
13 9 13 11 0 22 -4 24 -10z m65 4 c-3 -3 -12 -4 -19 -1 -8 3 -5 6 6 6 11 1 17
-2 13 -5z m-181 -72 c-17 -16 -18 -16 -5 5 7 12 15 20 18 17 3 -2 -3 -12 -13
-22z m-14 -454 c2 -147 0 -260 -4 -250 -4 9 -6 161 -5 337 0 176 2 289 4 250
1 -38 4 -190 5 -337z m15 -75 c-1 -87 -3 -16 -3 157 0 173 2 244 3 158 2 -87
2 -229 0 -315z m796 -320 c-112 -2 -294 -2 -405 0 -112 1 -21 2 202 2 223 0
314 -1 203 -2z"/>
<path d="M4443 12903 c944 -2 2490 -2 3435 0 944 1 171 2 -1718 2 -1889 0
-2662 -1 -1717 -2z"/>
<path d="M15193 11943 c-29 -21 -101 -66 -160 -101 -135 -78 -217 -140 -315
-235 -83 -81 -113 -132 -187 -314 -22 -57 -74 -169 -115 -251 -90 -179 -107
-222 -196 -467 -87 -244 -105 -307 -125 -434 -9 -57 -39 -174 -67 -260 -75
-235 -118 -423 -148 -643 -14 -101 -35 -736 -33 -998 2 -322 31 -460 114 -534
69 -63 171 -62 306 3 199 96 425 396 678 902 26 52 88 165 138 253 120 213
149 283 223 541 34 121 82 285 107 365 166 534 257 1041 257 1434 0 388 -108
654 -301 740 -95 43 -116 43 -176 -1z"/>
<path d="M13660 10959 c-7 -11 -10 -23 -7 -25 2 -2 9 7 15 21 14 30 7 33 -8 4z"/>
<path d="M13631 10898 c-5 -13 -35 -77 -66 -143 -270 -570 -435 -1157 -500
-1780 -19 -172 -22 -567 -6 -685 7 -53 9 -32 10 120 1 102 8 248 16 324 15
140 92 600 141 841 84 419 216 854 359 1190 61 145 65 155 60 155 -3 0 -9 -10
-14 -22z"/>
<path d="M17593 9228 c-383 -318 -580 -506 -717 -682 -111 -142 -145 -234
-145 -384 1 -160 40 -261 141 -358 69 -67 120 -98 215 -130 73 -25 86 -26 208
-21 87 4 150 12 190 25 246 78 428 232 531 447 97 201 99 401 9 672 -35 107
-251 563 -266 563 -4 0 -79 -59 -166 -132z"/>
<path d="M16385 8728 c-108 -129 -202 -265 -228 -332 -14 -36 -20 -73 -20
-126 1 -96 17 -153 51 -185 52 -48 56 -25 12 72 -36 78 -37 107 -7 194 28 81
71 153 153 255 57 71 140 212 130 222 -2 2 -43 -43 -91 -100z"/>
<path d="M11654 9948 c-54 -79 -198 -282 -319 -453 -337 -473 -400 -569 -622
-960 -139 -245 -164 -291 -200 -370 -26 -58 -22 -52 54 75 78 132 254 403 789
1220 64 96 165 254 226 350 61 96 127 199 145 228 66 103 23 49 -73 -90z"/>
</g>
</svg>
