<?xml version="1.0" standalone="no"?>
<!DOCTYPE svg PUBLIC "-//W3C//DTD SVG 20010904//EN"
 "http://www.w3.org/TR/2001/REC-SVG-20010904/DTD/svg10.dtd">
<svg version="1.0" xmlns="http://www.w3.org/2000/svg"
 width="1080.000000pt" height="1080.000000pt" viewBox="0 0 1080.000000 1080.000000"
 preserveAspectRatio="xMidYMid meet">
<metadata>
Created by potrace 1.11, written by Peter Selinger 2001-2013
</metadata>
<g transform="translate(0.000000,1080.000000) scale(0.100000,-0.100000)"
fill="#000000" stroke="none">
<path d="M5065 10779 c-1033 -65 -2036 -429 -2866 -1040 l-106 -79 -7 -61
c-22 -219 -8 -255 185 -454 75 -78 142 -152 149 -165 7 -12 16 -77 20 -144 5
-66 12 -137 15 -156 15 -79 76 -258 100 -292 14 -20 25 -40 25 -44 0 -4 16
-21 37 -38 32 -29 37 -38 41 -91 4 -46 11 -68 34 -96 16 -20 28 -40 27 -45 -2
-5 7 -40 19 -78 12 -37 22 -83 22 -101 0 -18 9 -77 21 -132 11 -54 27 -128 34
-165 8 -36 22 -83 33 -105 11 -21 25 -58 31 -83 7 -25 23 -67 36 -95 13 -27
47 -99 74 -159 31 -65 73 -136 107 -178 31 -38 57 -75 58 -82 6 -43 71 -140
159 -239 56 -63 114 -135 129 -158 15 -24 74 -95 132 -156 84 -90 106 -119
106 -142 0 -51 120 -221 260 -366 96 -99 123 -142 164 -256 39 -110 178 -294
383 -507 127 -133 131 -138 113 -156 -9 -10 -33 -22 -51 -26 -19 -5 31 -6 116
-3 219 9 924 9 1035 1 90 -7 191 -11 253 -9 16 1 26 5 23 10 -3 4 -54 11 -113
14 -104 5 -173 20 -173 37 0 5 28 28 61 52 94 66 241 211 305 301 79 110 176
228 309 373 61 66 119 136 129 155 9 19 35 58 57 88 21 30 39 63 39 73 0 10 5
18 11 18 6 0 32 24 57 53 26 28 85 93 132 142 53 55 87 99 88 113 0 12 23 48
50 80 56 66 131 169 183 252 20 32 64 94 98 138 33 45 61 86 61 92 0 21 53
116 96 172 24 31 44 62 44 68 0 7 15 51 34 99 39 100 50 138 47 168 -1 11 3
24 8 28 6 3 11 0 12 -7 0 -7 4 -4 9 7 12 28 12 37 -1 29 -8 -5 -8 -1 0 14 6
11 11 32 11 46 0 13 5 26 10 28 6 2 14 30 17 63 10 99 88 254 138 275 31 13
78 64 95 102 31 72 53 249 31 262 -4 3 -20 -8 -35 -24 -31 -36 -58 -38 -79 -7
-13 19 -18 20 -36 9 -15 -8 -76 -12 -213 -11 -106 0 -197 3 -202 6 -5 4 -53 8
-105 9 -128 5 -162 11 -154 29 3 8 11 15 18 15 7 0 15 6 17 13 3 8 33 12 99
13 90 0 127 10 154 38 19 21 35 67 35 104 0 21 4 42 9 48 6 5 12 36 16 69 3
33 7 72 9 87 3 17 -3 33 -15 44 -10 9 -19 24 -19 32 0 8 -13 28 -29 43 -17 15
-31 36 -33 46 -2 10 -15 26 -30 35 -25 16 -34 34 -29 61 1 4 2 20 3 34 2 15
10 28 20 31 14 3 15 8 6 31 -6 14 -10 65 -9 114 2 68 -1 88 -12 93 -8 3 -17
23 -21 44 -6 37 -8 39 -37 36 -25 -3 -41 5 -79 38 -27 22 -49 47 -49 54 -1 7
-5 20 -10 30 -5 9 -12 26 -16 36 -5 19 -7 18 -31 -7 -13 -15 -37 -29 -52 -33
-15 -3 -70 -25 -122 -50 -52 -24 -102 -44 -111 -44 -9 0 -22 -6 -28 -14 -24
-29 -161 -67 -311 -87 -47 -6 -103 -13 -125 -17 -22 -3 -85 -5 -140 -5 -78 1
-110 6 -145 22 -25 11 -57 21 -72 21 -21 0 -28 5 -28 19 0 30 -11 52 -22 45
-6 -4 -29 -8 -52 -11 -77 -7 -86 -10 -99 -28 -12 -15 -18 -16 -50 -6 -20 7
-41 10 -46 7 -5 -3 -14 1 -21 9 -9 11 -7 21 13 47 21 29 26 56 19 103 -1 6
-27 36 -57 68 -41 43 -55 65 -55 87 0 20 5 30 15 30 9 0 18 6 21 14 4 10 19
13 55 11 48 -3 49 -2 49 25 0 21 7 30 30 40 17 7 36 20 43 30 15 21 232 93
317 105 44 7 135 32 155 44 6 3 19 7 30 8 11 2 41 10 66 18 25 9 53 13 62 10
9 -4 24 2 36 14 12 12 30 21 41 21 11 0 38 11 60 25 22 14 46 22 55 19 17 -7
91 63 80 75 -4 3 -10 -1 -15 -9 -8 -12 -10 -12 -16 3 -9 24 13 47 45 47 15 0
36 7 47 15 10 8 35 15 56 15 35 0 37 2 53 54 12 39 23 56 39 60 18 5 19 8 6
17 -11 8 2 9 50 6 62 -5 120 -24 120 -39 0 -5 9 -8 20 -8 17 0 48 -37 41 -49
-1 -2 21 -14 49 -26 28 -12 58 -32 67 -45 15 -22 61 -141 85 -220 5 -19 16
-42 24 -51 8 -8 14 -23 14 -32 0 -9 9 -36 19 -59 11 -24 22 -51 25 -60 3 -11
15 -18 31 -18 15 0 25 -6 25 -15 0 -8 9 -29 20 -47 13 -22 20 -51 20 -85 0
-46 3 -53 20 -53 11 0 20 -4 20 -9 0 -5 9 -12 19 -16 11 -3 23 -16 27 -28 9
-28 40 -64 104 -117 27 -24 50 -87 50 -141 0 -27 5 -49 10 -49 6 0 10 -26 10
-57 0 -40 5 -62 18 -76 30 -34 17 -262 -18 -312 -11 -16 -23 -68 -21 -88 1
-10 -5 -27 -14 -37 -19 -21 -24 -82 -7 -88 7 -2 10 -8 6 -13 -3 -5 1 -9 8 -9
16 0 22 46 8 55 -16 10 -12 45 5 45 12 0 15 -15 15 -74 0 -50 -4 -76 -12 -79
-7 -3 -3 -6 8 -6 29 -1 43 18 50 70 3 24 14 61 24 81 11 20 20 56 21 80 2 47
32 132 52 153 18 17 43 148 63 325 l17 145 66 70 c133 139 201 242 201 305 0
26 -6 42 -17 49 -14 8 -15 13 -6 33 19 36 91 259 98 300 l7 36 -104 62 c-128
76 -434 231 -591 299 -750 326 -1649 482 -2472 430z m1637 -517 c6 -6 12 -23
13 -36 1 -31 -27 -40 -101 -30 -42 5 -54 3 -54 -7 0 -11 -2 -11 -9 1 -7 10 -4
18 10 28 11 7 17 18 14 23 -4 5 5 9 18 9 14 0 27 6 30 14 7 17 62 15 79 -2z
m289 -1628 c8 -8 20 -14 25 -14 13 0 84 -81 79 -91 -3 -4 2 -12 11 -17 16 -9
15 -11 -4 -21 -21 -11 -144 -28 -274 -38 -66 -5 -69 -4 -97 26 -16 17 -28 37
-27 44 7 35 40 97 51 97 8 0 17 9 20 20 6 20 12 20 103 14 60 -4 103 -12 113
-20z m293 -539 c15 -8 35 -15 42 -15 8 0 25 -6 37 -14 12 -7 38 -14 58 -14 20
-1 48 -6 62 -11 25 -10 27 -15 27 -70 0 -33 -7 -86 -16 -118 -9 -32 -19 -69
-22 -83 -6 -30 -29 -49 -58 -50 -25 0 -84 -28 -84 -40 0 -5 -12 -7 -27 -5 -16
2 -35 4 -44 4 -25 1 -28 45 -8 91 l18 40 -23 6 c-36 9 -90 -9 -101 -34 -5 -12
-14 -22 -19 -22 -5 0 0 -9 12 -20 12 -11 25 -20 31 -20 13 0 24 -34 12 -38 -6
-2 -11 -15 -11 -28 0 -15 -6 -24 -15 -24 -9 0 -20 -12 -25 -26 -6 -14 -20 -34
-33 -44 -28 -23 -18 -34 17 -20 15 5 46 12 70 14 23 3 54 8 68 11 21 5 27 2
38 -25 21 -52 -1 -100 -58 -127 -102 -47 -235 -85 -382 -108 -47 -7 -110 -17
-140 -22 -76 -12 -376 -15 -483 -4 -58 5 -94 14 -106 25 -10 9 -42 19 -72 22
-65 7 -129 32 -129 51 0 16 63 17 158 4 40 -6 74 -6 95 1 17 5 59 13 92 16 44
5 60 11 60 22 0 11 -14 16 -58 18 -48 3 -67 9 -113 42 -30 21 -50 41 -44 45 5
3 10 17 10 30 0 15 7 26 21 30 14 5 18 10 10 14 -6 4 -9 15 -6 23 10 25 144
46 300 47 159 1 283 9 305 21 8 4 36 11 63 15 26 4 47 11 47 17 0 5 13 13 28
19 31 11 39 45 22 92 -5 15 -15 41 -21 57 -6 17 -18 30 -26 30 -20 0 -33 41
-20 65 6 11 9 20 7 20 -2 0 0 9 4 21 7 22 30 36 86 53 19 6 49 15 65 20 50 16
246 13 279 -4z m-3809 -815 c-3 -5 -11 -10 -16 -10 -6 0 -7 5 -4 10 3 6 11 10
16 10 6 0 7 -4 4 -10z m2002 -10 c13 0 39 -18 64 -45 23 -24 49 -47 58 -50 19
-7 69 -72 107 -138 24 -44 27 -60 34 -172 0 -5 20 -11 45 -12 57 -3 90 -30 81
-67 -4 -15 -2 -26 4 -26 14 0 13 -53 -2 -68 -19 -19 -28 -14 -45 25 -10 26
-12 38 -4 41 25 8 8 22 -27 22 -32 0 -41 -5 -50 -25 -6 -14 -18 -25 -27 -25
-8 0 -15 -6 -15 -13 0 -23 -33 -44 -80 -52 -24 -4 -54 -13 -65 -20 -17 -11
-32 -12 -76 -6 -3 1 -28 22 -55 48 -27 26 -58 52 -69 58 -11 6 -24 20 -30 33
-5 12 -15 22 -21 22 -6 0 -19 9 -28 19 -14 15 -15 24 -6 40 6 12 7 21 1 21
-14 0 -6 63 12 90 8 14 18 43 21 64 4 22 10 44 15 50 15 20 46 111 43 128 -4
25 48 69 73 63 11 -3 30 -5 42 -5z"/>
<path d="M8611 9683 c-5 -21 -15 -72 -21 -113 -21 -131 -65 -246 -150 -391
-95 -163 -135 -247 -162 -348 -20 -70 -22 -105 -23 -431 -1 -195 -5 -373 -9
-395 -4 -22 -20 -107 -36 -190 -15 -82 -31 -175 -35 -205 -31 -264 -57 -377
-111 -475 -15 -28 -77 -100 -138 -160 -161 -161 -201 -210 -336 -414 -205
-310 -244 -402 -194 -456 37 -40 115 -35 261 16 65 22 201 68 303 101 185 60
265 87 330 115 44 19 51 23 241 121 219 112 367 155 539 154 215 0 379 -58
512 -181 154 -143 223 -286 235 -491 13 -216 -68 -436 -247 -675 -24 -33 -53
-69 -62 -79 -23 -25 -58 -119 -58 -154 1 -39 32 -102 71 -141 27 -26 221 -163
307 -216 51 -32 185 -164 242 -240 50 -66 93 -153 121 -245 19 -61 23 -98 23
-200 -1 -227 -53 -331 -273 -551 -75 -75 -142 -143 -149 -152 -26 -35 -72
-126 -110 -222 -22 -55 -59 -140 -81 -190 -41 -88 -86 -210 -95 -257 -26 -140
-103 -369 -126 -376 -5 -2 -10 -10 -10 -18 0 -8 -4 -14 -10 -14 -5 0 -10 -6
-10 -12 0 -16 -91 -112 -144 -153 -86 -67 -218 -124 -326 -140 -85 -14 -95
-15 -155 -21 -67 -7 -126 -18 -330 -62 -98 -22 -182 -33 -280 -38 -272 -12
-336 -37 -594 -230 -218 -163 -265 -185 -549 -255 -89 -22 -226 -62 -305 -90
-321 -113 -609 -185 -842 -209 -223 -23 -602 -3 -870 46 -16 3 -102 19 -190
35 -172 32 -330 43 -435 29 -262 -35 -441 -34 -665 5 -364 63 -529 107 -670
177 -97 49 -247 138 -257 152 -4 6 -11 11 -16 11 -9 0 -242 163 -252 176 -5 6
-61 47 -120 87 -35 24 -184 135 -190 142 -3 4 -75 59 -161 123 -188 140 -302
246 -406 375 -43 53 -94 114 -114 134 -89 89 -193 107 -374 63 -60 -14 -143
-31 -183 -38 -51 -8 -71 -15 -68 -24 11 -27 155 -235 252 -363 152 -200 287
-354 483 -550 596 -595 1300 -1030 2097 -1296 1122 -375 2304 -375 3429 1
1144 381 2124 1134 2788 2141 504 763 799 1619 879 2544 16 187 16 664 -1 850
-89 1040 -457 2006 -1072 2822 -281 372 -652 747 -1006 1016 l-82 62 -10 -37z"/>
<path d="M1598 9223 c-262 -254 -560 -627 -770 -963 -453 -724 -720 -1515
-804 -2385 -20 -209 -23 -709 -5 -910 35 -394 105 -764 208 -1104 l25 -84 62
64 c35 35 94 91 131 124 38 33 89 78 115 100 96 85 213 202 241 241 33 49 59
117 59 159 -1 67 -50 136 -170 237 -225 188 -305 268 -404 401 -109 148 -146
256 -147 430 0 230 115 433 324 570 68 45 170 94 212 104 6 1 19 4 30 6 157
35 287 32 470 -8 61 -14 117 -27 125 -29 8 -3 92 -25 185 -50 94 -25 218 -61
276 -80 106 -36 228 -60 349 -71 154 -13 187 -17 225 -27 22 -6 45 -11 50 -12
6 -2 42 -12 80 -25 239 -75 505 -243 765 -485 103 -96 150 -128 215 -151 134
-47 234 71 180 213 -19 50 -68 131 -104 171 -12 13 -21 27 -21 31 0 3 -13 19
-28 36 -16 16 -68 88 -117 159 -121 177 -154 224 -187 265 -39 48 -118 150
-148 190 -14 19 -46 59 -72 91 -162 197 -365 558 -453 809 -46 130 -109 349
-120 419 -3 18 -7 37 -10 41 -2 3 -7 21 -10 39 -13 73 -78 248 -155 416 -48
105 -73 175 -130 366 -60 203 -85 256 -206 444 -96 148 -149 249 -160 303 -4
17 -11 32 -16 32 -6 0 -46 -35 -90 -77z"/>
<path d="M7222 9029 c2 -6 8 -10 13 -10 5 0 11 4 13 10 2 6 -4 11 -13 11 -9 0
-15 -5 -13 -11z"/>
<path d="M7810 8459 c0 -5 5 -7 10 -4 6 3 10 8 10 11 0 2 -4 4 -10 4 -5 0 -10
-5 -10 -11z"/>
<path d="M7796 8424 c-10 -26 -7 -42 9 -48 12 -4 15 3 15 29 0 36 -13 47 -24
19z"/>
<path d="M8815 6000 c-10 -11 -24 -20 -30 -20 -7 0 -19 -7 -26 -16 -7 -9 -22
-20 -34 -26 -11 -5 -36 -18 -55 -28 -19 -11 -46 -19 -61 -20 -43 0 -77 -23
-95 -63 -9 -20 -23 -42 -30 -47 -12 -11 -12 -34 1 -100 9 -45 -8 -88 -39 -100
-14 -5 -32 -21 -42 -35 -15 -23 -22 -25 -93 -25 -63 0 -84 -5 -120 -25 -23
-14 -49 -25 -56 -25 -23 0 -28 -20 -11 -39 9 -10 16 -22 16 -27 0 -5 20 -29
45 -52 44 -41 58 -72 33 -72 -7 0 -29 -10 -48 -21 l-35 -22 36 -12 c53 -19
119 -54 119 -64 0 -16 31 -41 49 -41 20 0 76 -23 102 -42 13 -9 24 -1 65 42
62 66 143 132 155 124 5 -3 24 7 44 21 36 28 204 95 236 95 11 0 19 7 19 16 0
17 57 44 92 44 13 0 48 19 78 41 30 23 65 46 76 51 12 6 24 23 27 38 3 15 27
58 53 96 26 38 50 83 54 99 10 47 -7 83 -42 90 -16 4 -45 22 -64 40 -19 19
-57 44 -84 57 -27 13 -49 28 -50 35 0 13 -72 30 -159 38 -30 2 -62 7 -72 10
-12 4 -19 1 -19 -7 0 -10 -2 -10 -8 0 -7 9 -13 8 -27 -8z"/>
<path d="M585 5670 l-40 -41 0 -98 0 -98 50 -59 c80 -96 247 -257 332 -321
105 -79 260 -173 298 -180 16 -3 53 -11 80 -18 28 -7 103 -21 168 -31 64 -10
122 -21 128 -25 7 -4 6 -23 -5 -59 -12 -39 -16 -96 -16 -203 0 -165 0 -166
-79 -251 l-36 -38 31 16 c29 14 94 84 94 101 0 4 26 46 58 93 33 48 81 121
108 163 60 93 106 134 178 160 64 22 94 23 166 8 61 -13 89 -6 70 16 -9 11
-32 15 -80 15 l-67 0 -63 64 c-35 36 -67 71 -71 77 -4 8 -24 12 -47 11 -42 -3
-74 10 -111 45 -19 18 -22 26 -14 50 5 15 18 30 29 32 25 4 44 20 44 37 0 12
-5 12 -30 -1 -53 -27 -128 -19 -180 21 -8 7 -35 14 -60 17 -25 3 -65 12 -90
20 -25 9 -65 18 -90 22 -32 4 -57 16 -84 39 -21 19 -52 40 -69 46 -82 30 -78
27 -71 68 8 49 -16 108 -50 124 -15 6 -26 15 -26 20 0 4 -11 8 -24 8 -14 0
-28 5 -31 10 -3 6 -25 10 -48 10 -24 0 -51 6 -62 14 -11 7 -36 16 -55 19 -58
9 -170 43 -182 55 -7 7 -17 12 -23 12 -6 0 -11 9 -11 20 0 11 5 20 11 20 7 0
12 7 12 15 0 8 -1 15 -2 15 0 0 -19 -18 -40 -40z"/>
<path d="M1875 5520 c11 -5 29 -9 40 -9 17 -1 17 1 5 9 -8 5 -26 9 -40 9 -23
0 -23 -1 -5 -9z"/>
<path d="M2470 5456 c0 -2 7 -7 16 -10 8 -3 12 -2 9 4 -6 10 -25 14 -25 6z"/>
<path d="M2575 5385 c17 -14 34 -25 39 -25 6 0 -5 11 -24 25 -43 32 -54 32
-15 0z"/>
<path d="M7175 5331 c-98 -82 -228 -252 -255 -336 -23 -69 -57 -139 -76 -156
-11 -9 -36 -17 -56 -17 -83 -1 -101 -2 -97 -7 5 -4 223 -41 329 -55 36 -4 72
-11 80 -14 8 -3 42 -10 75 -15 33 -5 98 -19 145 -31 47 -12 101 -25 120 -29
38 -8 64 -16 182 -55 79 -27 124 -33 113 -16 -3 6 0 10 7 10 13 1 58 63 58 80
0 22 -55 50 -99 50 -28 0 -56 7 -71 17 -14 10 -31 18 -38 20 -31 4 -50 36 -61
102 -9 57 -8 75 4 105 20 47 19 62 -6 97 -13 18 -29 29 -45 29 -13 0 -24 4
-24 9 0 11 -40 27 -55 22 -29 -9 -130 0 -144 13 -9 7 -25 16 -37 20 -11 3 -31
16 -43 27 -18 17 -21 27 -15 52 4 18 7 41 8 52 1 11 6 20 13 20 6 0 20 8 30
18 10 10 27 24 38 32 15 10 16 14 5 14 -8 0 -46 -26 -85 -58z m-24 -64 c-13
-13 -26 -3 -16 12 3 6 11 8 17 5 6 -4 6 -10 -1 -17z"/>
<path d="M3000 5034 c65 -74 80 -93 93 -122 6 -15 20 -33 29 -40 10 -7 27 -31
38 -53 11 -21 23 -39 25 -39 26 0 -133 221 -201 280 -16 14 -9 2 16 -26z"/>
<path d="M7562 5029 c2 -6 8 -10 13 -10 5 0 11 4 13 10 2 6 -4 11 -13 11 -9 0
-15 -5 -13 -11z"/>
<path d="M4333 4873 c15 -2 37 -2 50 0 12 2 0 4 -28 4 -27 0 -38 -2 -22 -4z"/>
<path d="M6300 4871 c0 -12 37 -21 80 -20 32 1 33 1 10 8 -50 15 -90 20 -90
12z"/>
<path d="M4253 4863 c9 -2 25 -2 35 0 9 3 1 5 -18 5 -19 0 -27 -2 -17 -5z"/>
<path d="M4198 4853 c6 -2 18 -2 25 0 6 3 1 5 -13 5 -14 0 -19 -2 -12 -5z"/>
<path d="M4040 4839 c-41 -5 -93 -13 -115 -18 -35 -8 -36 -9 -10 -9 17 0 55 3
85 7 30 5 62 5 71 0 11 -6 21 -4 29 6 6 7 24 16 38 18 52 8 -17 5 -98 -4z"/>
<path d="M3197 4750 c3 -11 9 -23 14 -26 5 -3 9 -15 9 -28 0 -28 18 -46 45
-45 11 0 15 3 8 6 -7 2 -26 29 -43 59 -34 58 -41 66 -33 34z"/>
<path d="M3410 4700 c-8 -5 -10 -10 -5 -10 6 0 17 5 25 10 8 5 11 10 5 10 -5
0 -17 -5 -25 -10z"/>
<path d="M8328 4483 c-9 -16 -19 -52 -22 -81 -3 -29 -8 -57 -11 -62 -9 -15 13
-50 74 -116 62 -67 91 -104 91 -116 0 -4 19 -12 43 -18 76 -20 111 -34 162
-66 60 -37 69 -40 164 -65 41 -10 93 -30 117 -44 23 -14 49 -25 57 -25 8 0 46
-16 83 -35 38 -19 73 -35 78 -35 4 0 21 -11 37 -24 22 -19 45 -26 96 -30 38
-3 95 -11 129 -17 73 -13 172 -3 203 20 21 16 22 19 7 34 -9 8 -16 18 -16 22
0 22 -41 44 -90 48 -52 4 -94 11 -150 23 -24 5 -150 80 -160 95 -3 4 -43 23
-90 42 -47 20 -97 47 -111 61 -16 16 -37 26 -55 26 -16 0 -49 11 -74 24 -25
14 -65 34 -89 45 -25 12 -52 28 -60 36 -30 29 -126 95 -136 95 -7 0 -22 11
-35 25 -13 14 -28 25 -34 25 -6 0 -22 12 -35 25 -13 14 -27 25 -32 25 -5 0 -9
7 -9 15 0 9 -8 19 -17 22 -10 4 -32 17 -49 30 -39 29 -46 29 -66 -4z"/>
<path d="M2549 3898 c-1 -35 -1 -157 -1 -273 1 -115 -3 -233 -9 -261 -9 -48
-8 -55 18 -100 16 -27 35 -61 42 -76 17 -33 34 -44 126 -85 48 -21 89 -31 130
-32 33 -1 79 -9 103 -17 23 -7 50 -14 59 -14 21 0 155 -66 179 -88 11 -10 42
-31 69 -47 28 -16 67 -43 88 -60 66 -53 137 -199 137 -282 0 -23 5 -45 10 -48
6 -3 10 -14 10 -25 0 -15 11 -19 63 -26 79 -10 272 -6 312 6 17 5 145 11 285
12 290 3 268 8 369 -86 65 -62 91 -117 91 -195 l0 -57 -46 -3 c-26 -1 -57 -9
-70 -17 -30 -20 -49 -13 -105 39 -65 60 -94 73 -177 81 -89 8 -114 19 -110 49
3 19 39 46 83 60 8 3 -4 38 -22 66 -1 2 -8 -1 -15 -6 -7 -6 -39 -13 -71 -16
-66 -6 -130 -39 -192 -97 l-40 -37 -70 8 c-77 9 -264 1 -281 -12 -5 -4 -38
-11 -72 -14 -77 -8 -92 10 -43 51 33 28 43 74 16 74 -8 0 -15 6 -15 13 0 18
-32 47 -52 47 -9 0 -43 22 -76 50 -68 57 -99 64 -104 23 -2 -14 -8 -28 -15
-30 -15 -5 -59 43 -83 93 -11 23 -33 53 -49 67 -16 14 -34 42 -41 63 -12 34
-11 38 11 55 23 17 23 18 4 39 -29 32 -80 50 -139 50 -29 0 -101 5 -161 11
-83 8 -128 8 -188 -1 -57 -9 -89 -10 -115 -2 -20 6 -91 25 -157 42 -66 18
-147 43 -180 56 -33 13 -71 26 -85 29 -48 12 -100 72 -100 116 0 16 -4 29 -10
29 -5 0 -10 -19 -10 -42 0 -24 -7 -68 -15 -98 -28 -103 -21 -150 35 -260 46
-88 63 -110 166 -209 98 -95 122 -113 161 -121 49 -11 66 -24 209 -160 44 -42
107 -91 140 -110 65 -36 157 -104 201 -149 16 -16 56 -43 89 -62 58 -32 129
-82 149 -104 13 -14 263 -151 293 -160 12 -3 22 -10 22 -14 0 -4 66 -13 148
-20 176 -14 240 -27 269 -53 31 -29 157 -41 341 -33 175 7 218 20 270 79 29
33 35 47 44 97 3 14 19 10 103 -27 55 -24 122 -62 149 -84 33 -28 58 -40 80
-40 17 0 40 -7 50 -15 13 -10 43 -15 88 -15 43 0 85 -7 116 -19 142 -56 753
-87 937 -47 39 8 115 24 170 36 136 29 288 76 358 112 61 31 116 48 282 93 55
14 152 50 215 80 63 30 126 57 140 60 14 4 39 17 55 30 39 29 130 75 149 75
21 0 135 81 250 178 54 46 116 94 138 108 22 14 59 43 82 64 l42 39 52 -37
c61 -42 104 -51 299 -59 125 -5 133 -4 162 18 43 32 61 76 61 152 0 66 0 66
-55 125 -30 33 -51 63 -47 67 4 5 1 5 -5 1 -7 -4 -13 -4 -13 1 0 4 -16 19 -35
31 -18 13 -41 35 -50 48 -14 22 -10 20 37 -11 29 -19 63 -39 74 -44 12 -5 32
-23 45 -39 13 -16 47 -44 74 -62 28 -18 61 -43 75 -55 41 -36 130 -86 198
-112 62 -23 65 -23 149 -9 99 18 162 50 198 104 23 33 24 37 8 41 -26 5 -49
28 -64 64 -7 18 -21 43 -31 56 -24 32 -23 63 4 93 13 14 33 38 46 54 19 24 24
27 32 14 5 -8 10 -12 10 -7 0 23 -87 128 -136 162 -31 22 -60 48 -65 57 -9 16
-6 16 43 1 29 -8 57 -18 62 -21 5 -3 6 0 2 6 -5 9 8 12 46 12 29 0 70 5 90 10
42 12 163 90 163 105 0 14 -86 43 -146 49 -30 2 -74 11 -99 20 -25 9 -53 16
-62 16 -10 0 -18 5 -18 10 0 6 -7 10 -15 10 -8 0 -15 5 -15 10 0 6 -6 10 -13
10 -7 0 -20 8 -28 18 -9 9 -33 32 -54 51 -20 19 -48 52 -62 74 -23 37 -27 39
-63 34 -32 -4 -44 0 -74 25 -41 34 -80 109 -96 186 -7 28 -15 52 -19 52 -9 0
-31 -45 -31 -64 0 -7 -9 -23 -19 -35 -11 -13 -21 -27 -23 -32 -2 -5 -20 -11
-42 -13 -21 -3 -44 -10 -50 -15 -7 -6 -22 -12 -34 -14 -44 -7 -75 -67 -35 -67
12 0 13 -3 3 -15 -9 -11 -16 -12 -31 -2 -15 9 -22 8 -36 -6 -17 -17 -17 -19
-1 -31 10 -7 15 -16 11 -19 -3 -4 6 -7 20 -7 15 0 27 -5 27 -11 0 -7 7 -17 17
-24 9 -7 13 -17 9 -23 -10 -16 -26 -15 -26 1 0 21 -57 19 -104 -3 -59 -26
-102 -29 -119 -6 -13 17 -16 15 -55 -34 -23 -29 -42 -59 -42 -66 0 -8 -4 -14
-10 -14 -5 0 -10 -7 -10 -15 0 -8 -6 -15 -12 -15 -17 0 -51 -105 -43 -133 4
-12 13 -37 22 -55 8 -19 12 -44 9 -57 -5 -18 1 -31 26 -54 l31 -29 -22 -69
c-12 -37 -28 -77 -36 -89 -14 -22 -132 -84 -159 -84 -10 0 -19 -11 -22 -29 -6
-27 -17 -35 -63 -46 -7 -2 -23 -13 -36 -25 l-23 -21 -25 25 c-24 24 -24 26 -7
26 13 0 20 7 20 20 0 24 2 24 -45 4 -29 -12 -35 -18 -24 -24 11 -7 11 -12 1
-22 -9 -9 -12 -9 -12 0 0 7 -5 12 -11 12 -5 0 -8 -4 -5 -9 3 -5 -1 -12 -9 -15
-8 -3 -14 -9 -14 -13 4 -16 -14 -43 -27 -43 -8 0 -13 -3 -13 -7 3 -21 -2 -33
-16 -33 -25 0 -33 30 -19 75 10 35 10 46 0 61 -15 19 -51 12 -43 -9 4 -12 -43
-81 -72 -104 -49 -41 -94 24 -65 93 14 34 34 46 34 20 0 -8 5 -18 11 -22 9 -5
10 7 5 43 -7 54 2 90 29 116 8 9 24 48 34 87 10 39 25 78 33 86 9 9 43 19 77
23 33 4 62 9 63 12 2 2 12 14 22 26 14 17 19 44 23 115 4 63 10 99 20 110 19
21 10 88 -12 88 -7 0 -15 -4 -17 -9 -5 -13 -108 -20 -108 -7 0 6 -5 4 -10 -4
-7 -12 -11 -8 -16 18 -14 67 -18 57 -94 -198 -12 -41 -24 -87 -27 -102 -3 -16
-12 -28 -19 -28 -18 0 -18 30 0 44 9 6 17 35 20 66 2 31 13 78 23 105 10 28
19 66 18 85 0 35 0 35 -43 34 -42 -1 -47 -4 -83 -56 -7 -11 -46 -12 -94 -4
-26 5 -35 4 -27 -2 11 -7 10 -11 -5 -16 -12 -5 -22 -1 -31 12 -20 30 -48 16
-71 -34 -12 -24 -21 -48 -21 -54 0 -5 -4 -10 -8 -10 -10 0 -36 -88 -49 -167
-12 -68 -2 -93 36 -93 29 0 55 -20 34 -27 -6 -2 -9 -12 -6 -21 6 -23 -62 -52
-122 -52 -51 0 -58 14 -26 59 11 15 26 58 34 96 8 39 24 90 36 115 66 133 60
213 -12 165 -12 -8 -38 -16 -57 -19 -19 -2 -52 -7 -73 -11 -24 -5 -53 -3 -77
5 -26 9 -47 9 -66 3 -26 -9 -31 -18 -51 -93 -12 -46 -27 -133 -32 -194 -13
-131 -39 -175 -34 -56 0 8 8 60 16 115 18 115 20 215 5 215 -5 0 -24 -10 -41
-22 -16 -12 -44 -21 -61 -21 -79 2 -139 12 -147 24 -5 8 -9 11 -9 7 0 -4 -16
0 -36 8 -19 8 -44 12 -54 9 -10 -3 -21 -1 -25 5 -5 8 -11 8 -21 -1 -7 -6 -19
-9 -26 -6 -25 9 -56 -12 -63 -42 -8 -39 -25 -40 -25 -2 0 16 -6 31 -13 34 -8
3 -111 6 -230 8 -205 3 -218 2 -232 -16 -13 -18 -14 -18 -15 -2 0 18 -12 20
-170 22 -87 1 -194 13 -230 25 -25 9 -83 15 -265 26 -55 3 -134 14 -175 24
-143 35 -175 42 -235 50 -74 10 -152 29 -185 45 -15 8 -44 11 -70 8 -29 -3
-55 1 -74 10 -15 9 -43 14 -61 12 -22 -2 -36 2 -39 11 -3 9 -19 13 -44 12 -21
0 -45 2 -52 7 -7 4 -15 3 -19 -4 -5 -8 -13 -6 -27 5 -16 13 -16 15 -1 10 9 -3
17 -1 17 3 0 5 -24 11 -52 14 -59 5 -140 22 -178 37 -14 5 -45 14 -69 20 -33
9 -41 14 -30 21 11 7 8 9 -9 9 -13 0 -33 5 -45 12 -12 6 -35 14 -52 19 -82 20
-320 127 -336 152 -4 5 -16 4 -30 -3 -17 -10 -24 -10 -27 -1 -2 6 -8 11 -13
11 -6 0 -19 9 -31 20 -12 11 -29 20 -39 20 -9 0 -22 7 -29 15 -7 8 -18 15 -24
15 -6 0 -27 16 -45 36 -35 36 -55 40 -103 19 -13 -5 -18 -3 -18 8 0 8 -9 17
-20 20 -11 3 -20 13 -20 22 0 9 -11 41 -25 70 -13 30 -27 66 -31 80 -12 48
-24 36 -25 -27z m279 -282 c21 -7 30 -30 14 -39 -12 -8 -52 30 -52 50 0 11 3
14 8 7 4 -6 17 -14 30 -18z m3940 -610 c2 -10 -1 -23 -6 -28 -13 -13 -62 19
-56 37 8 20 58 13 62 -9z m-91 -8 c-3 -8 -6 -5 -6 6 -1 11 2 17 5 13 3 -3 4
-12 1 -19z m-751 -96 c-12 -12 -18 8 -10 35 l8 28 4 -28 c2 -16 1 -31 -2 -35z
m798 42 c10 -27 7 -31 -19 -26 -16 3 -25 11 -25 23 0 23 35 26 44 3z m-818
-125 l-16 -23 0 25 c0 30 10 43 23 30 6 -6 3 -18 -7 -32z m2195 -100 c13 -11
17 -18 9 -15 -8 3 -23 9 -32 12 -10 4 -18 10 -18 15 0 15 16 10 41 -12z m-957
-133 c-4 -58 -11 -106 -16 -106 -5 0 -18 5 -30 11 -24 13 -20 51 12 117 11 23
20 50 20 60 0 19 10 35 17 28 2 -2 1 -51 -3 -110z m-738 -42 c-3 -9 -6 -45 -6
-80 0 -36 -4 -64 -10 -64 -11 0 -13 65 -4 123 4 20 11 37 16 37 6 0 7 -7 4
-16z m-3236 -264 c0 -12 -87 -12 -115 0 -14 6 1 9 48 9 38 1 67 -3 67 -9z
m121 -20 c24 -13 24 -26 0 -33 -23 -6 -51 10 -51 28 0 17 23 19 51 5z m3676
-72 c-3 -8 -6 -5 -6 6 -1 11 2 17 5 13 3 -3 4 -12 1 -19z m-595 -10 c3 -7 6
-40 7 -73 3 -79 19 -97 79 -90 24 2 57 14 72 25 l29 21 7 -26 c3 -14 14 -30
24 -35 24 -13 40 -13 20 0 -12 7 -8 10 15 11 17 0 64 2 105 4 56 2 65 1 35 -5
l-40 -8 47 3 c39 2 55 9 92 41 24 21 45 47 45 57 1 21 31 23 31 1 0 -19 -19
-56 -36 -69 -11 -9 -43 -88 -44 -107 0 -5 14 -8 30 -8 17 0 30 -4 30 -9 0 -12
-107 -81 -127 -81 -10 0 -31 -9 -48 -20 -16 -11 -41 -20 -55 -20 -14 0 -35 -7
-48 -15 -12 -9 -57 -20 -99 -25 -103 -13 -125 -19 -144 -42 -9 -11 -31 -22
-50 -24 -19 -2 -45 -6 -57 -9 -13 -3 -30 -1 -38 6 -8 6 -14 8 -14 4 0 -4 -7
-2 -15 5 -10 8 -15 9 -15 1 0 -12 -63 -41 -89 -41 -26 0 -121 30 -121 38 1 13
50 43 78 48 35 7 43 21 40 70 -2 30 0 40 10 37 6 -3 12 0 12 6 0 6 -7 11 -15
11 -20 0 -65 29 -65 42 0 11 60 68 72 68 4 0 14 7 22 16 13 12 16 13 16 1 0
-16 37 -51 62 -60 15 -5 19 1 24 33 6 36 10 40 35 40 24 0 29 4 29 26 0 14 7
56 16 95 15 66 27 84 36 57z m-573 -226 c0 -15 -4 -36 -9 -47 -6 -15 -9 -6 -9
33 -1 33 3 51 9 47 6 -3 10 -18 9 -33z m-9 -184 c0 -70 -16 -138 -32 -138 -4
0 -8 23 -8 50 0 28 5 50 10 50 6 0 10 25 10 55 0 30 5 55 10 55 6 0 10 -31 10
-72z m460 -217 c0 -5 -14 -11 -31 -15 -39 -7 -64 5 -29 15 36 10 60 10 60 0z
m-155 -37 c-73 -16 -75 -16 -75 -5 0 10 40 17 100 18 27 1 20 -2 -25 -13z"/>
<path d="M6520 1950 c0 -11 6 -20 14 -20 21 0 31 21 15 31 -22 14 -29 11 -29
-11z"/>
<path d="M6800 1946 c0 -8 6 -17 13 -19 10 -4 10 -6 0 -6 -7 -1 -13 -6 -13
-12 0 -8 4 -8 14 0 8 7 12 21 9 31 -6 23 -23 27 -23 6z"/>
<path d="M6820 1890 c0 -5 5 -10 11 -10 5 0 7 5 4 10 -3 6 -8 10 -11 10 -2 0
-4 -4 -4 -10z"/>
<path d="M945 3810 c-10 -11 -14 -20 -9 -20 5 0 15 9 22 20 7 11 11 20 9 20
-2 0 -12 -9 -22 -20z"/>
<path d="M2034 3720 c-23 -12 -56 -35 -75 -51 -19 -17 -44 -38 -56 -46 -13 -9
-23 -22 -23 -31 0 -12 -3 -13 -12 -4 -15 15 -31 16 -22 0 5 -8 0 -9 -14 -6
-12 4 -25 2 -28 -3 -3 -5 0 -9 6 -9 12 0 -43 -48 -77 -67 -13 -7 -29 -13 -36
-13 -7 0 -24 -12 -38 -26 -13 -15 -44 -35 -68 -45 -37 -17 -137 -83 -221 -147
-14 -11 -63 -46 -110 -78 -75 -52 -91 -58 -135 -59 -40 0 -61 -7 -105 -36 -30
-20 -66 -46 -79 -58 -14 -12 -35 -24 -49 -28 -41 -10 -124 5 -162 31 -20 13
-59 35 -88 50 -28 14 -64 42 -79 61 -15 19 -32 35 -38 35 -5 0 -18 14 -27 30
-9 17 -24 30 -32 30 -18 0 -12 -18 76 -202 l61 -128 104 0 c65 0 116 5 136 14
18 7 59 16 92 20 56 7 152 39 218 72 16 9 27 23 27 34 0 12 36 56 86 106 80
81 88 86 119 80 28 -6 45 2 136 63 57 37 122 87 143 109 22 23 42 39 46 37 3
-2 23 14 44 35 38 39 126 90 155 90 21 0 65 -65 57 -85 -3 -9 12 -2 34 16 22
18 58 35 83 40 42 7 137 64 137 80 0 8 -64 29 -88 29 -10 0 -12 10 -7 40 7 39
6 40 -22 40 -15 0 -46 -9 -69 -20z"/>
<path d="M7530 3163 c1 -27 1 -27 15 -9 14 19 12 36 -6 36 -5 0 -9 -12 -9 -27z"/>
<path d="M9031 2665 c1 -19 18 -51 18 -35 0 8 -4 22 -9 30 -5 8 -9 11 -9 5z"/>
<path d="M7588 2608 c-18 -14 -28 -46 -15 -47 41 -4 47 0 47 29 0 33 -7 37
-32 18z"/>
</g>
</svg>
