<svg enable-background="new 0 0 71.9 38" viewBox="0 0 71.9 38" xmlns="http://www.w3.org/2000/svg"><path d="m7.8 3.9c0 1.6-1.3 2.9-2.9 2.9s-3-1.2-3-2.9 1.2-2.9 2.8-2.9c1.7 0 3 1.3 3.1 2.9 0-.1 0 0 0 0zm15.5 0c0 1.6-1.3 2.9-2.9 2.9s-2.9-1.3-2.9-2.9 1.3-2.9 2.9-2.9c1.6 0 2.9 1.3 2.9 2.9zm15.5 0c0 1.6-1.3 2.9-2.9 2.9s-2.9-1.3-2.9-2.9 1.3-2.9 2.9-2.9c1.7 0 2.9 1.3 2.9 2.9zm15.7 0c0 1.6-1.3 2.9-2.9 2.9s-2.9-1.3-2.9-2.9 1.2-2.9 2.8-2.9c1.6 0 3 1.3 3 2.9zm15.5 0c0 1.6-1.3 2.9-2.9 2.9s-2.9-1.3-2.9-2.9 1.3-2.9 2.9-2.9c1.7 0 2.9 1.3 2.9 2.9zm-62.3 15.1c0 1.6-1.3 2.9-2.9 2.9-1.5 0-2.8-1.3-2.8-2.9s1.2-2.8 2.8-2.9c1.6 0 2.9 1.3 2.9 2.9.1 0 .1 0 0 0zm15.6 0c0 1.6-1.3 2.9-2.9 2.9s-2.9-1.3-2.9-2.9 1.3-2.9 2.9-2.9c1.6 0 2.9 1.3 2.9 2.9zm15.5 0c0 1.6-1.3 2.9-2.9 2.9s-2.9-1.3-2.9-2.9 1.3-2.9 2.9-2.9c1.7 0 2.9 1.3 2.9 2.9zm15.7 0c0 1.6-1.3 2.9-2.9 2.9s-2.9-1.3-2.9-2.9 1.3-2.9 2.9-2.9c1.5 0 2.9 1.3 2.9 2.9zm15.5 0c0 1.6-1.3 2.9-2.9 2.9s-2.9-1.3-2.9-2.9 1.3-2.9 2.9-2.9c1.7 0 2.9 1.3 2.9 2.9zm-62.3 15.1c0 1.6-1.3 2.9-2.9 2.9-1.5.1-2.8-1.2-2.8-2.8s1.3-2.9 2.9-2.9c1.5-.1 2.8 1.2 2.8 2.8.1 0 .1 0 0 0zm15.6 0c0 1.6-1.3 2.9-2.9 2.9s-2.9-1.3-2.9-2.9 1.3-2.9 2.9-2.9c1.6 0 2.9 1.3 2.9 2.9zm15.5 0c0 1.6-1.3 2.9-2.9 2.9s-2.9-1.3-2.9-2.9 1.3-2.9 2.9-2.9c1.7 0 2.9 1.3 2.9 2.9zm15.7 0c0 1.6-1.3 2.9-2.9 2.9s-2.9-1.3-2.9-2.9 1.3-2.9 2.9-2.9c1.5 0 2.9 1.3 2.9 2.9zm15.5 0c0 1.6-1.3 2.9-2.9 2.9s-2.9-1.3-2.9-2.9 1.3-2.9 2.9-2.9c1.7 0 2.9 1.3 2.9 2.9z" fill="#3763eb"/></svg>